<svg width="119" height="141" viewBox="0 0 119 141" fill="none" xmlns="http://www.w3.org/2000/svg">
<path d="M10.7671 32.2828C8.57981 31.931 6.77088 31.7227 5.00077 31.3366C1.83175 30.6458 0.211134 29.1091 0.17233 26.9385C0.132232 24.6592 1.81744 22.7097 5.09835 22.2925C9.78397 21.6968 14.528 21.53 19.2524 21.2926C21.807 21.1633 24.3731 21.27 27.3306 21.27C26.9019 19.2921 26.5949 17.7514 26.2314 16.225C25.4655 13.167 25.8726 9.93302 27.3723 7.16023C29.3772 3.31184 32.4324 0.967279 36.7921 0.821751C44.7543 0.556134 52.7196 0.40653 60.6882 0.372897C65.9634 0.347672 71.2401 0.593395 76.5155 0.718873C77.269 0.736983 78.025 0.733756 78.7759 0.78938C84.1568 1.18651 87.6 3.94893 88.8372 9.22155C89.3973 11.6088 89.4691 14.1139 89.72 16.5704C89.8494 17.8381 89.8869 19.1148 89.9787 20.5805C90.8466 20.7114 91.7217 20.7913 92.5993 20.8198C98.4115 20.6555 104.222 20.4136 110.035 20.2868C111.532 20.2223 113.031 20.373 114.486 20.7345C115.654 21.0077 116.703 21.6495 117.477 22.565C118.253 23.4805 118.713 24.6211 118.789 25.8182C118.99 27.0524 118.805 28.3184 118.261 29.4438C117.715 30.5692 116.836 31.4991 115.744 32.1069C114.841 32.6567 113.852 33.0628 112.73 33.6204C112.73 36.7547 112.623 39.8632 112.747 42.962C113.485 61.3483 114.5 79.732 113.816 98.1396C113.569 104.796 113.118 111.474 112.208 118.066C111.703 121.727 110.228 125.296 108.885 128.79C108.25 130.465 107.247 131.976 105.95 133.211C104.653 134.447 103.095 135.375 101.391 135.928C98.2434 137.008 95.0116 137.825 91.7294 138.369C88.7376 138.753 85.7271 138.966 82.712 139.007C70.9898 139.589 59.2714 140.28 47.5428 140.659C42.5983 140.87 37.645 140.656 32.737 140.02C20.1107 138.244 13.248 131.286 11.2496 118.649C10.6575 115.148 10.3283 111.608 10.2647 108.058C10.131 87.7211 10.0826 67.3835 10.1198 47.0458C10.1262 42.2182 10.5317 37.3892 10.7671 32.2828ZM20.4354 33.0687C21.0174 43.1075 21.4486 92.2564 22.6115 107.056C22.9542 111.419 23.9593 115.742 24.8195 120.052C25.6771 124.348 28.5803 126.847 32.742 127.519C37.3986 128.272 42.1348 128.997 46.8301 128.962C58.5626 128.874 70.2965 128.47 82.0193 127.94C86.5077 127.737 90.9734 126.893 95.4346 126.239C96.2476 126.136 97.0081 125.78 97.6064 125.221C98.2052 124.661 98.6114 123.926 98.7679 123.121C99.3855 120.625 100.184 118.141 100.479 115.602C102.173 101.022 101.824 86.3868 101.377 71.7571C101.024 60.2527 100.614 48.7501 100.226 37.2469C100.19 36.2121 100.119 35.1733 100.071 34.2685C72.6241 33.8681 48.1132 33.4729 20.4373 33.0687H20.4354ZM37.7031 21.0384C51.2323 21.528 64.4931 21.5067 77.8394 20.8838V11.9388C64.3456 11.486 51.1016 10.9996 37.7031 12.312V21.0384Z" fill="white"/>
<path d="M81.4354 77.7579C81.2945 70.8108 80.964 63.7699 80.6438 56.9599L80.6374 56.8305C80.5223 54.3616 80.4097 51.8926 80.2985 49.4236C80.2493 48.5608 80.087 47.7082 79.8167 46.8875C79.2236 45.0118 77.8855 44.0228 76.1535 44.1865C75.1045 44.2731 73.2975 44.8131 72.9761 47.4482C72.9244 47.9223 72.8985 48.3988 72.8985 48.8757C72.795 57.4392 72.0131 85.7503 72.0053 86.0388C71.8592 92.8449 71.7079 99.88 71.6044 106.859C71.5507 108.781 71.724 110.703 72.1218 112.584C72.3138 113.58 72.8513 114.476 73.639 115.115C74.4274 115.754 75.4156 116.094 76.4297 116.076C76.5487 116.076 76.669 116.072 76.7899 116.063C77.7917 116.036 78.7508 115.652 79.4965 114.983C80.2416 114.312 80.7247 113.4 80.8592 112.406C81.2143 110.339 81.4089 108.248 81.4413 106.15L81.4762 101.337C81.5331 93.6127 81.5952 85.6268 81.4354 77.7579Z" fill="white"/>
<path d="M46.8237 44.6397H46.8205C46.1752 44.6372 45.539 44.7915 44.9665 45.0896C44.3941 45.3876 43.9025 45.8204 43.5344 46.3504C42.9109 47.4661 42.5591 48.7129 42.5075 49.9899C42.3975 51.7201 42.2822 53.4495 42.1645 55.2211C41.7603 61.3145 41.3413 67.6158 41.1615 73.8347C40.9028 82.6789 40.8156 91.666 40.7283 100.358C40.702 103.018 40.6738 105.678 40.6437 108.338C40.6421 109.427 40.7944 110.511 41.0962 111.557C41.8018 114.058 43.4996 115.611 45.5264 115.611H45.5912C47.7144 115.575 49.4112 113.898 49.9124 111.339C50.1595 109.985 50.2641 108.609 50.2238 107.234C50.1113 100.171 49.9733 93.1097 49.8426 86.4012L49.7242 80.3356L49.8597 73.1316C50.0072 65.3281 50.146 57.9518 50.2579 50.539C50.3243 49.296 50.1402 48.0524 49.7167 46.882C49.4569 46.2985 49.0568 45.7884 48.552 45.3972C48.0472 45.0059 47.4535 44.7458 46.8237 44.6397Z" fill="white"/>
</svg>
